<?xml version="1.0" encoding="UTF-8" standalone="no"?>
<svg
   xmlns:dc="http://purl.org/dc/elements/1.1/"
   xmlns:cc="http://creativecommons.org/ns#"
   xmlns:rdf="http://www.w3.org/1999/02/22-rdf-syntax-ns#"
   xmlns:svg="http://www.w3.org/2000/svg"
   xmlns="http://www.w3.org/2000/svg"
   xmlns:sodipodi="http://sodipodi.sourceforge.net/DTD/sodipodi-0.dtd"
   xmlns:inkscape="http://www.inkscape.org/namespaces/inkscape"
   id="Layer_3"
   enable-background="new 0 0 64 64"
   height="512"
   viewBox="0 0 64 64"
   width="512"
   version="1.1"
   sodipodi:docname="merninator-small.svg"
   inkscape:version="0.92.5 (2060ec1f9f, 2020-04-08)"
   inkscape:export-filename="/media/jcamden/Storage/projects/code/current/merninator2/packages/server/src/public/merninantorLogo-red.png"
   inkscape:export-xdpi="192"
   inkscape:export-ydpi="192">
  <metadata
     id="metadata25">
    <rdf:RDF>
      <cc:Work
         rdf:about="">
        <dc:format>image/svg+xml</dc:format>
        <dc:type
           rdf:resource="http://purl.org/dc/dcmitype/StillImage" />
        <dc:title></dc:title>
      </cc:Work>
    </rdf:RDF>
  </metadata>
  <defs
     id="defs23" />
  <sodipodi:namedview
     pagecolor="#ffffff"
     bordercolor="#666666"
     borderopacity="1"
     objecttolerance="10"
     gridtolerance="10"
     guidetolerance="10"
     inkscape:pageopacity="0"
     inkscape:pageshadow="2"
     inkscape:window-width="1920"
     inkscape:window-height="1043"
     id="namedview21"
     showgrid="false"
     inkscape:zoom="0.65186406"
     inkscape:cx="419.89463"
     inkscape:cy="162.37424"
     inkscape:window-x="1600"
     inkscape:window-y="0"
     inkscape:window-maximized="1"
     inkscape:current-layer="Layer_3" />
  <path
     style="fill:#ffffff;stroke:#000000;stroke-width:0.14343394px;stroke-linecap:butt;stroke-linejoin:miter;stroke-opacity:1"
     d="m 7.734488,58.804794 -2.27237,3.931035 h 10.099427 l -2.651101,-4.026913 z"
     id="path5264-3"
     inkscape:connector-curvature="0"
     sodipodi:nodetypes="ccccc" />
  <path
     style="fill:#ffffff;stroke:#000000;stroke-width:0.14343394px;stroke-linecap:butt;stroke-linejoin:miter;stroke-opacity:1"
     d="m 29.697323,58.671994 -2.27237,3.931035 h 10.099426 l -2.6511,-4.026913 z"
     id="path5264-3-2"
     inkscape:connector-curvature="0"
     sodipodi:nodetypes="ccccc" />
  <path
     style="fill:#ffffff;stroke:#000000;stroke-width:0.14343394px;stroke-linecap:butt;stroke-linejoin:miter;stroke-opacity:1"
     d="m 51.814749,58.554794 -2.27237,3.931035 h 10.099427 l -2.6511,-4.026913 z"
     id="path5264-3-1"
     inkscape:connector-curvature="0"
     sodipodi:nodetypes="ccccc" />
  <path
     style="fill:#ffffff;stroke:#000000;stroke-width:0.125px;stroke-linecap:butt;stroke-linejoin:miter;stroke-opacity:1"
     d="m -51.3399,58.410606 -1.725819,3.931035 h 7.67031 l -2.013457,-4.026913 z"
     id="path5264-0"
     inkscape:connector-curvature="0" />
  <path
     style="fill:#ffffff;stroke:#000000;stroke-width:0.125px;stroke-linecap:butt;stroke-linejoin:miter;stroke-opacity:1"
     d="m -74.0236,58.527807 -1.725819,3.931034 h 7.67031 l -2.013457,-4.026912 z"
     id="path5264-4"
     inkscape:connector-curvature="0" />
  <path
     style="fill:#ffffff;stroke:#000000;stroke-width:0.125px;stroke-linecap:butt;stroke-linejoin:miter;stroke-opacity:1"
     d="m -96.550038,58.247266 -1.725819,3.931035 h 7.67031 l -2.013457,-4.026913 z"
     id="path5264"
     inkscape:connector-curvature="0" />
  <path
     style="fill:#ff0000;stroke:none;stroke-width:0.12643135px;stroke-linecap:butt;stroke-linejoin:miter;stroke-opacity:1"
     d="M 1.2606862,2.1751499 V 20.20038 l 57.7733798,0.287637 2.746443,-1.629941 1.969492,-2.957991 -3.207208,-2.595 L 59.720677,10.420734 54.031618,5.2432741 45.10568,2.079271 28.528937,2.1751499 Z"
     id="path4296"
     inkscape:connector-curvature="0" />
  <path
     style="fill:#ffffff;stroke:#000000;stroke-width:0.1254991px;stroke-linecap:butt;stroke-linejoin:miter;stroke-opacity:1"
     d="M 42.383587,6.3938207 42.480232,12.53007 61.036277,12.242432 55.237514,6.0103052 Z"
     id="path4298"
     inkscape:connector-curvature="0" />
  <path
     style="fill:#ff0000;stroke:#000000;stroke-width:0.14343394px;stroke-linecap:butt;stroke-linejoin:miter;stroke-opacity:1"
     d="m 15.43188,23.823172 14.644171,11.121952 -0.378728,22.97687 5.749365,-0.01102 -0.573408,-23.157611 14.130674,-12.231705 -7.371688,0.311724 -2.088,3.48264 -7.322085,4.602186 -9.215729,-7.190916 z"
     id="path4294"
     inkscape:connector-curvature="0"
     sodipodi:nodetypes="ccccccccccc" />
  <rect
     style="fill:#ff0000;stroke-width:0.14343394"
     id="rect4292"
     width="7.9001474"
     height="33.764"
     x="50.407249"
     y="24.444916" />
  <rect
     style="fill:#ff0000;stroke-width:0.14343394"
     id="rect4290"
     width="7.9001455"
     height="33.764"
     x="6.3269892"
     y="24.444916" />
  <path
     d="M 1.2796463,22.448088 H 63.355191 v 2 H 1.2796463 Z"
     id="path4"
     inkscape:connector-curvature="0"
     style="stroke-width:1.00060904" />
  <path
     d="m 63.750001,15.900085 c 0,-1.262 -0.448561,-2.491 -1.263026,-3.46 l -3.005861,-3.579 C 55.4481,4.0590852 49.521051,1.3050852 43.219025,1.3050852 H 1.2539034 v 2 H 43.219025 c 3.012917,0 5.929066,0.702 8.54987,2 h -9.186927 c -0.556416,0 -1.008001,0.448 -1.008001,0.9999998 v 6 c 0,0.552 0.451585,1 1.008001,1 h 18.007948 l 0.348769,0.415 c 0.513072,0.611 0.795313,1.385 0.795313,2.18 0,1.877 -1.540226,3.405 -3.432245,3.405 H 1.2539034 v 2 H 58.301753 c 3.003844,0 5.448248,-2.425 5.448248,-5.405 z m -20.160031,-4.595 v -4 h 11.386386 c 1.073521,0.83 2.067411,1.777 2.956468,2.836 l 0.977762,1.164 z"
     id="path6"
     inkscape:connector-curvature="0"
     style="stroke-width:1.0039928" />
  <path
     style="stroke-width:1.14747155"
     d="m 6.32699,24.444915 v 33.764 l -2.495129,3.789 c -0.204088,0.31 -0.181704,0.678 0.05793,0.973 0.239637,0.295 0.663612,0.474 1.120504,0.474 h 10.533529 c 0.456891,0 0.879549,-0.18 1.120503,-0.475 0.240955,-0.295 0.262022,-0.663 0.05794,-0.973 l -2.495131,-3.788 v -33.764 z m 0.813715,37 1.316691,-2 h 3.639333 l 1.316691,2 z m 4.453048,-4 H 8.960372 v -33 h 2.633381 z"
     id="path2-3"
     inkscape:connector-curvature="0"
     sodipodi:nodetypes="cccsssscccccccccccccc" />
  <path
     style="stroke-width:1.14747155"
     d="m 28.367122,34.194915 v 24.014 l -2.49513,3.789 c -0.204087,0.31 -0.181703,0.678 0.05794,0.973 0.239638,0.295 0.663612,0.474 1.120504,0.474 h 10.533528 c 0.456892,0 0.87955,-0.18 1.120504,-0.475 0.240955,-0.295 0.262022,-0.663 0.05794,-0.973 l -2.495131,-3.788 v -24.014 z m 0.813715,27.25 1.316691,-2 h 3.639333 l 1.316691,2 z m 4.453048,-4 h -2.633381 v -23.25 h 2.633381 z"
     id="path2-3-7"
     inkscape:connector-curvature="0"
     sodipodi:nodetypes="cccsssscccccccccccccc" />
  <path
     style="stroke-width:1.14747155"
     d="m 50.407254,24.444915 v 33.764 l -2.49513,3.789 c -0.204087,0.31 -0.181703,0.678 0.05794,0.973 0.239637,0.295 0.663612,0.474 1.120504,0.474 h 10.533528 c 0.456892,0 0.87955,-0.18 1.120504,-0.475 0.240955,-0.295 0.262022,-0.663 0.05794,-0.973 l -2.495131,-3.788 v -33.764 z m 0.813715,37 1.31669,-2 h 3.639334 l 1.316691,2 z m 4.453048,-4 h -2.633382 v -33 h 2.633382 z"
     id="path2-3-5"
     inkscape:connector-curvature="0"
     sodipodi:nodetypes="cccsssscccccccccccccc" />
  <path
     style="stroke-width:0.59210616"
     d="M 15.630435,22.52166 31.000504,34.194915 29.138422,35.609128 13.768353,23.935873 Z"
     id="path4-3"
     inkscape:connector-curvature="0" />
  <path
     style="stroke-width:0.59210616"
     d="M 50.866036,23.935873 35.495967,35.609129 33.633885,34.194915 49.003954,22.52166 Z"
     id="path4-3-5"
     inkscape:connector-curvature="0" />
  <path
     style="stroke-width:0.59210616"
     d="M 42.994347,24.247597 32.403523,31.920853 30.541442,30.506639 41.132265,22.833384 Z"
     id="path4-3-5-6"
     inkscape:connector-curvature="0"
     sodipodi:nodetypes="ccccc" />
  <path
     style="stroke-width:0.59210616"
     d="M 23.345609,22.583385 34.265606,30.50664 32.403523,31.920853 21.483527,23.997598 Z"
     id="path4-3-5-6-2"
     inkscape:connector-curvature="0"
     sodipodi:nodetypes="ccccc" />
  <path
     style="fill:#ffffff;stroke:none;stroke-width:0.125px;stroke-linecap:butt;stroke-linejoin:miter;stroke-opacity:1"
     d="M -102.11611,3.2809626 V 21.306193 l 56.472664,0.287636 2.6846,-1.62994 1.92516,-2.957991 -3.135,-2.595 -0.80361,-2.884351 -5.560975,-5.1774604 -8.72498,-3.164003 -16.203531,0.09588 z"
     id="path4296-2"
     inkscape:connector-curvature="0" />
  <path
     style="fill:#ffffff;stroke:#000000;stroke-width:0.125px;stroke-linecap:butt;stroke-linejoin:miter;stroke-opacity:1"
     d="m -62.230496,7.4996326 0.09588,6.1362504 18.408742,-0.287638 -5.752729,-6.2321274 z"
     id="path4298-5"
     inkscape:connector-curvature="0" />
  <path
     style="fill:#ffffff;stroke:#000000;stroke-width:0.125px;stroke-linecap:butt;stroke-linejoin:miter;stroke-opacity:1"
     d="m -84.857914,25.428984 11.12195,11.121953 -0.287636,21.47687 4.989739,0.03692 -1.058705,-21.70555 10.73196,-12.231705 -5.598646,0.311724 -1.585794,3.48264 -5.560975,4.602186 -6.99916,-7.190916 z"
     id="path4294-8"
     inkscape:connector-curvature="0" />
  <rect
     style="fill:#ffffff;stroke-width:0.125"
     id="rect4292-6"
     width="6"
     height="32.014"
     x="-52.408863"
     y="26.050726" />
  <rect
     style="fill:#ffffff;stroke-width:0.125"
     id="rect4290-2"
     width="6"
     height="32.014"
     x="-97.658859"
     y="26.050726" />
  <path
     style="stroke-width:1"
     d="m -103.03369,24.053901 h 61.999994 v 2 h -61.999994 z"
     id="path4-8"
     inkscape:connector-curvature="0" />
  <path
     style="stroke-width:1"
     d="m -41.033686,17.005898 c 0,-1.262 -0.445,-2.491 -1.253,-3.46 l -2.982,-3.5790004 c -4.001004,-4.802 -9.881004,-7.556 -16.133004,-7.556 h -41.632 v 2 h 41.632 c 2.989,0 5.882,0.702 8.482,2 h -9.114 c -0.552,0 -1,0.448 -1,1 v 6.0000004 c 0,0.552 0.448,1 1,1 h 17.865004 l 0.346,0.415 c 0.509,0.611 0.789,1.385 0.789,2.18 0,1.877 -1.528,3.405 -3.405,3.405 h -56.595004 v 2 h 56.595004 c 2.98,0 5.405,-2.425 5.405,-5.405 z m -20.000004,-4.595 V 8.4108976 h 11.296 c 1.065,0.83 2.051004,1.7770004 2.933004,2.8360004 l 0.97,1.164 z"
     id="path6-4"
     inkscape:connector-curvature="0" />
  <path
     style="stroke-width:1"
     d="m -97.658861,26.050728 v 32.014 l -1.895,3.789 c -0.155,0.31 -0.138,0.678 0.044,0.973 0.182,0.295 0.504,0.474 0.851,0.474 h 8.000002 c 0.346999,0 0.667999,-0.18 0.850999,-0.475 0.183,-0.295 0.199,-0.663 0.044,-0.973 l -1.895,-3.788 v -32.014 z m 0.618,35.25 1,-2 h 2.764 l 1.000001,2 z m 3.382,-4 h -2 v -31.25 h 2 z"
     id="path2-3-72"
     inkscape:connector-curvature="0"
     sodipodi:nodetypes="cccsssscccccccccccccc" />
  <path
     style="stroke-width:1"
     d="m -75.033861,35.800728 v 22.264 l -1.895,3.789 c -0.155,0.31 -0.138,0.678 0.044,0.973 0.182,0.295 0.504,0.474 0.851,0.474 h 8.000001 c 0.347,0 0.668,-0.18 0.851,-0.475 0.183,-0.295 0.199,-0.663 0.044,-0.973 l -1.895001,-3.788 v -22.264 z m 0.618,25.5 1,-2 h 2.764 l 1,2 z m 3.382,-4 h -2 v -21.5 h 2 z"
     id="path2-3-7-4"
     inkscape:connector-curvature="0"
     sodipodi:nodetypes="cccsssscccccccccccccc" />
  <path
     style="stroke-width:1"
     d="m -52.408861,26.050728 v 32.014 l -1.895,3.789 c -0.155,0.31 -0.138,0.678 0.044,0.973 0.182,0.295 0.504,0.474 0.851,0.474 h 8.000005 c 0.347,0 0.668,-0.18 0.851,-0.475 0.183,-0.295 0.199,-0.663 0.044,-0.973 l -1.89501,-3.788 v -32.014 z m 0.618,35.25 1,-2 h 2.763995 l 1,2 z m 3.382,-4 h -2 v -31.25 h 2 z"
     id="path2-3-5-0"
     inkscape:connector-curvature="0"
     sodipodi:nodetypes="cccsssscccccccccccccc" />
  <path
     style="stroke-width:0.51600945"
     d="m -84.707116,24.127473 11.673255,11.673255 -1.414213,1.414212 -11.673255,-11.673255 z"
     id="path4-3-6"
     inkscape:connector-curvature="0" />
  <path
     style="stroke-width:0.51600945"
     d="m -57.946392,25.541685 -11.673255,11.673257 -1.414214,-1.414214 11.673255,-11.673255 z"
     id="path4-3-5-2"
     inkscape:connector-curvature="0" />
  <path
     style="stroke-width:0.51600945"
     d="m -63.545041,25.853409 -8.423255,8.173256 -1.414213,-1.414213 8.423256,-8.173255 z"
     id="path4-3-5-6-9"
     inkscape:connector-curvature="0"
     sodipodi:nodetypes="ccccc" />
  <path
     style="stroke-width:0.51600945"
     d="m -79.227337,24.189198 8.673256,8.423255 -1.414215,1.414212 -8.673255,-8.423255 z"
     id="path4-3-5-6-2-9"
     inkscape:connector-curvature="0"
     sodipodi:nodetypes="ccccc" />
  <text
     xml:space="preserve"
     style="font-style:normal;font-variant:normal;font-weight:normal;font-stretch:normal;font-size:6.22044706px;line-height:1.25;font-family:Uroob;-inkscape-font-specification:Uroob;letter-spacing:0px;word-spacing:0px;fill:#000000;fill-opacity:1;stroke:none;stroke-width:0.15551119"
     x="-124.01514"
     y="12.934018"
     id="text3855-0"
     transform="scale(0.76838158,1.3014367)"><tspan
       sodipodi:role="line"
       id="tspan3853-8"
       x="-124.01514"
       y="12.934018"
       style="font-style:normal;font-variant:normal;font-weight:normal;font-stretch:normal;font-size:11.61150074px;font-family:Uroob;-inkscape-font-specification:Uroob;stroke-width:0.15551119">ERNINATOR</tspan></text>
  <text
     xml:space="preserve"
     style="font-style:normal;font-weight:normal;font-size:5.46417999px;line-height:1.25;font-family:sans-serif;letter-spacing:0px;word-spacing:0px;fill:#000000;fill-opacity:1;stroke:#000000;stroke-width:0.40981349;stroke-miterlimit:4;stroke-dasharray:none;stroke-opacity:1"
     x="-124.11123"
     y="12.720478"
     id="text4302-1"
     transform="scale(0.76713154,1.3035574)"><tspan
       sodipodi:role="line"
       id="tspan4300-3"
       x="-124.11123"
       y="12.720478"
       style="font-style:normal;font-variant:normal;font-weight:normal;font-stretch:normal;font-size:11.65691757px;font-family:Uroob;-inkscape-font-specification:Uroob;fill:#ffffff;stroke:#000000;stroke-width:0.40981349;stroke-miterlimit:4;stroke-dasharray:none;stroke-opacity:1">ERNINATOR</tspan></text>
</svg>
